<?xml version="1.0" encoding="utf-8"?>
<!-- Generator: Adobe Illustrator 19.1.0, SVG Export Plug-In . SVG Version: 6.00 Build 0)  -->
<svg version="1.0" id="Layer_x5F_1_x5F_1" xmlns="http://www.w3.org/2000/svg" xmlns:xlink="http://www.w3.org/1999/xlink" x="0px"
	 y="0px" viewBox="0 0 595.3 841.9" style="enable-background:new 0 0 595.3 841.9;" xml:space="preserve">
<style type="text/css">
	.st0{fill:none;stroke:#E4272E;stroke-width:29;stroke-linecap:round;stroke-linejoin:round;stroke-miterlimit:10;}
</style>
<path class="st0" d="M147.7,254.1c0,0,7.5,6.8-18.1,92.2s-117,130.7-58,305.4s243.8,156.3,243.8,156.3s177.3,2.9,229.9-156.3
	s-11.1-218.7-51.9-290.3s-30.1-107.2-30.1-107.2s28.3-41.8,3.8-80.8c0,0,5.7-58.1-45.4-62.6c0,0,4.7-78.4-113.5-78.4
	s-118.9,78.3-118.9,78.3s-55.8-3.7-34.9,62.7C154.4,173.3,126.1,206.5,147.7,254.1z"/>
<path class="st0" d="M421.7,110.7H188.5c-15.3,0-28.6,10.4-32.3,25.3l-1.7,37.3h307.8c9.4,0,16.9,7.9,16.5,17.3l-2.2,47.8
	c-0.4,8.8-7.7,15.7-16.5,15.7H147.7"/>
</svg>
