<?xml version="1.0" encoding="utf-8"?>
<!-- Generator: Adobe Illustrator 19.1.0, SVG Export Plug-In . SVG Version: 6.00 Build 0)  -->
<svg version="1.0" id="Layer_1" xmlns="http://www.w3.org/2000/svg" xmlns:xlink="http://www.w3.org/1999/xlink" x="0px" y="0px"
	 viewBox="0 0 595.3 841.9" style="enable-background:new 0 0 595.3 841.9;" xml:space="preserve">
<style type="text/css">
	.st0{fill:#FFFFFF;stroke:#E42930;stroke-width:20;stroke-miterlimit:10;}
	.st1{fill:#E42930;stroke:#E42930;stroke-width:4.65;stroke-linecap:round;stroke-linejoin:round;stroke-miterlimit:10;}
</style>
<path class="st0" d="M17.8,287.6c-0.9-1.7-0.9-1.7-0.9-3.4c0-0.9,0-0.9,0-1.7c0-13.8,26.7-26.7,81.8-37
	c54.2-9.5,121.3-14.6,198.8-14.6c76.6,0,142.9,5.2,197.1,14.6c55.1,10.3,81.8,23.2,81.8,37c0,3.4-1.7,7.7-5.2,10.3 M17.8,287.6
	c6,11.2,33.6,22.4,80.9,31c54.2,10.3,121.3,14.6,198.8,14.6c76.6,0,142.9-4.3,197.1-14.6c40.4-6.9,65.4-15.5,76.6-25.8"/>
<path class="st1" d="M573.7,300.5c-12,105-39.6,193.6-82.6,265.9c0,0.9,0,0.9,0,1.7c0,9.5-18.9,18.1-55.9,25
	c-37.9,6.9-82.6,10.3-135.1,10.3s-97.2-3.4-135.1-10.3c-32.7-6-50.8-12.9-55.1-21.5c0-0.9,0-1.7,0-2.6c-0.9,0-0.9,0-1.7,0
	c-43-61.1-71.4-152.3-87.8-273.7C20.3,295.3,263.1,397.7,573.7,300.5z"/>
</svg>
