<?xml version="1.0" encoding="utf-8"?>
<!-- Generator: Adobe Illustrator 19.1.0, SVG Export Plug-In . SVG Version: 6.00 Build 0)  -->
<svg version="1.0" id="Layer_1" xmlns="http://www.w3.org/2000/svg" xmlns:xlink="http://www.w3.org/1999/xlink" x="0px" y="0px"
	 viewBox="0 0 578.1 604.4" style="enable-background:new 0 0 578.1 604.4;" xml:space="preserve">
<style type="text/css">
	.st0{fill:#FFFCD5;}
	.st1{fill:none;stroke:#FFFCD5;stroke-width:6;stroke-linecap:round;stroke-linejoin:round;stroke-miterlimit:10;}
</style>
<g>
	<g>
		<path class="st0" d="M512.8,135.7C482.4,95.2,465.5,50.2,464.4,3H114.7c-6.7,52.8-25.9,100.1-54,142.8C25.9,193,9,248.1,9,310
			c0,77.6,27,143.9,82.1,199c54,55.1,120.3,82.1,199,82.1c76.5,0,143.9-27,197.9-82.1c55.1-55.1,83.2-121.4,83.2-199
			c0-65.2-19.1-122.6-58.5-172V135.7z"/>
		<path class="st1" d="M512.8,135.7C482.4,95.2,465.5,50.2,464.4,3H114.7c-6.7,52.8-25.9,100.1-54,142.8C25.9,193,9,248.1,9,310
			c0,77.6,27,143.9,82.1,199c54,55.1,120.3,82.1,199,82.1c76.5,0,143.9-27,197.9-82.1c55.1-55.1,83.2-121.4,83.2-199
			c0-65.2-19.1-122.6-58.5-172"/>
	</g>
</g>
</svg>
