<?xml version="1.0" encoding="utf-8"?>
<!-- Generator: Adobe Illustrator 19.1.0, SVG Export Plug-In . SVG Version: 6.00 Build 0)  -->
<svg version="1.0" id="Layer_1" xmlns="http://www.w3.org/2000/svg" xmlns:xlink="http://www.w3.org/1999/xlink" x="0px" y="0px"
	 viewBox="0 0 79.1 94.1" style="enable-background:new 0 0 79.1 94.1;" xml:space="preserve">
<style type="text/css">
	.st0{fill:#E42930;}
	.st1{fill:none;stroke:#E42930;stroke-width:4.7;stroke-linecap:round;stroke-linejoin:round;stroke-miterlimit:10;}
</style>
<g>
	<g>
		<path class="st0" d="M65.4,37.5c-0.7-6.9-3.4-12.7-8.1-17.7c-3-3.1-6.7-5.2-11-6.2l0.2,1.2c-0.1-0.1-0.2-0.2-0.4-0.3l0.2-0.9
			c-6.3-1.5-12.8-1.1-19,1.4c-6.8,2.6-11.5,7.3-14.3,13.9c-2.8,6.5-3,13.1-0.7,19.6c2.4,6.5,6.6,11.6,12.8,15
			c5.6,3.1,11.6,4.3,17.9,3.3c6.8-1,12.3-4.3,16.3-10l0.3-0.3C64,50.9,66,44.5,65.4,37.5z M55.1,20.3l0.4-0.4l1.2,0.9l-0.4,0.8
			c4.6,4.9,6.9,10.7,6.8,17.4c-0.1,7-2.6,13-7.6,18c-5,4.9-11,7.3-18,7.2c-7.3-0.2-13.5-3-18.3-8.4s-6.8-11.7-5.9-19
			c0.7-5.3,2.8-10,6.4-14c4.6-5,10.3-7.8,17.1-8.3C43.7,14,49.7,16,55.1,20.3z"/>
		<path class="st0" d="M56.3,21.6l-1.2-1.3C49.7,16,43.7,14,36.8,14.5C30,15,24.3,17.8,19.7,22.8c-3.6,4-5.7,8.7-6.4,14
			c-0.9,7.3,1.1,13.6,5.9,19s11,8.2,18.3,8.4c7,0.1,13-2.3,18-7.2c5-5,7.5-11,7.6-18C63.2,32.3,60.9,26.5,56.3,21.6z M31.3,32
			c1.9-2,4.2-2.9,6.8-2.9c2.7,0,4.9,0.9,6.9,2.9c1.8,1.8,2.8,4.1,2.8,6.8s-1,5-2.8,6.8c-2,1.9-4.2,2.9-6.9,2.9c-2.6,0-4.9-1-6.8-2.9
			c-1.9-1.8-2.8-4.1-2.8-6.8S29.4,33.8,31.3,32z"/>
		<path class="st0" d="M38.1,29.1c-2.6,0-4.9,0.9-6.8,2.9c-1.9,1.8-2.8,4.1-2.8,6.8s0.9,5,2.8,6.8c1.9,1.9,4.2,2.9,6.8,2.9
			c2.7,0,4.9-1,6.9-2.9c1.8-1.8,2.8-4.1,2.8-6.8s-1-5-2.8-6.8C43,30,40.8,29.1,38.1,29.1z M32.1,32.9c1.6-1.6,3.6-2.4,5.9-2.4
			c2.2,0,4.2,0.8,5.8,2.4c1.7,1.6,2.4,3.6,2.4,5.9c0,2.2-0.7,4.2-2.4,5.8C42.2,46.3,40.2,47,38,47c-2.3,0-4.3-0.7-5.9-2.4
			c-1.6-1.6-2.4-3.6-2.4-5.8C29.7,36.5,30.5,34.5,32.1,32.9z"/>
		<path class="st1" d="M38,30.5c2.2,0,4.2,0.8,5.8,2.4c1.7,1.6,2.4,3.6,2.4,5.9c0,2.2-0.7,4.2-2.4,5.8C42.2,46.3,40.2,47,38,47
			c-2.3,0-4.3-0.7-5.9-2.4c-1.6-1.6-2.4-3.6-2.4-5.8c0-2.3,0.8-4.3,2.4-5.9C33.7,31.3,35.7,30.5,38,30.5"/>
		<path class="st1" d="M56.3,21.6c4.6,4.9,6.9,10.7,6.8,17.4c-0.1,7-2.6,13-7.6,18c-5,4.9-11,7.3-18,7.2c-7.3-0.2-13.5-3-18.3-8.4
			s-6.8-11.7-5.9-19c0.7-5.3,2.8-10,6.4-14c4.6-5,10.3-7.8,17.1-8.3c6.9-0.5,12.9,1.5,18.3,5.8L56.3,21.6"/>
		<path class="st1" d="M38.1,29.1c2.7,0,4.9,0.9,6.9,2.9c1.8,1.8,2.8,4.1,2.8,6.8s-1,5-2.8,6.8c-2,1.9-4.2,2.9-6.9,2.9
			c-2.6,0-4.9-1-6.8-2.9c-1.9-1.8-2.8-4.1-2.8-6.8s0.9-5,2.8-6.8C33.2,30,35.5,29.1,38.1,29.1"/>
		<path class="st1" d="M15.2,85.3c-1-4.2-2-8.4-3-12.6c-1.9-8.2-3.4-16.5-4.7-24.9C6.7,42,7,36.3,8.7,30.5
			C10.9,22.8,15.5,17,22.3,13c8.2-4.8,16.9-5.7,26.2-2.6c6.9,2.3,12.6,6.6,17,12.9c0.1,0.2,0.1,0.2,0.2,0.3c3.1,6,4.2,12.4,3.3,19.2
			L62.2,85"/>
		<line class="st1" x1="9.2" y1="85.5" x2="15.2" y2="85.3"/>
		<line class="st1" x1="74.5" y1="85" x2="62.2" y2="85"/>
		<line class="st1" x1="62.2" y1="85" x2="15.2" y2="85.3"/>
	</g>
</g>
</svg>
