<?xml version="1.0" encoding="utf-8"?>
<!-- Generator: Adobe Illustrator 19.1.0, SVG Export Plug-In . SVG Version: 6.00 Build 0)  -->
<svg version="1.0" id="Layer_1" xmlns="http://www.w3.org/2000/svg" xmlns:xlink="http://www.w3.org/1999/xlink" x="0px" y="0px"
	 viewBox="0 0 595.3 841.9" style="enable-background:new 0 0 595.3 841.9;" xml:space="preserve">
<style type="text/css">
	.st0{fill:#4E8EB9;}
	.st1{fill:none;stroke:#4E8EB9;stroke-width:4.9;stroke-linecap:round;stroke-linejoin:round;stroke-miterlimit:10;}
	.st2{fill:none;stroke:#4E8EB9;stroke-width:7.35;stroke-linecap:round;stroke-linejoin:round;stroke-miterlimit:10;}
</style>
<g>
	<g>
		<path class="st0" d="M317,586.3c-4.9-1.6-12-2.6-22.4-2.6c-10.1,0-17.2,1.3-22.1,3.3c-4.9,2.3-8.5,7.2-11.4,15v5.5h70.3v-4.2
			C328.7,594.7,323.9,588.9,317,586.3z"/>
		<path class="st0" d="M346.3,624.4c1-3.9,0.3-7.5-2.3-10.7c-1.6-2.3-3.3-3.6-5.2-4.6l-7.5-1.6h-70.3h-4.2
			c-5.9,1.6-9.8,3.9-11.7,5.9c-2,2.6-2.9,5.5-2.9,9.1c0,1,0.3,2.3,1.6,3.6c1,1.6,2.3,2.6,2.6,3.3v1.3h98.3L346.3,624.4z"/>
		<path class="st0" d="M345.7,651.4v-3.9c1.6-1.3,2.6-2,3.3-2.9c1-1,1.6-2.6,1.6-4.6c0-2.3-1.6-4.2-4.9-6.8l-1-2.6h-98.3l-1.6,4.2
			c-0.7,0.7-1,2-2,3.3c-1,2-1.3,3.3-1.3,4.2c0,2,0.3,3.3,1,3.9c0.7,0.3,1.6,1,3.3,1.3v3.9H345.7z"/>
		<path class="st1" d="M331.3,603.2c-2.6-8.5-7.5-14.3-14.3-16.9c-4.9-1.6-12-2.6-22.4-2.6c-10.1,0-17.2,1.3-22.1,3.3
			c-4.9,2.3-8.5,7.2-11.4,15"/>
		<path class="st1" d="M346.3,624.4c1-3.9,0.3-7.5-2.3-10.7c-1.6-2.3-3.3-3.6-5.2-4.6"/>
		<path class="st1" d="M337.2,607.4h-5.9h-70.3h-4.2c-5.9,1.6-9.8,3.9-11.7,5.9c-2,2.6-2.9,5.5-2.9,9.1c0,1,0.3,2.3,1.6,3.6
			c1,1.6,2.3,2.6,2.6,3.3"/>
		<path class="st1" d="M345.7,647.5c1.6-1.3,2.6-2,3.3-2.9c1-1,1.6-2.6,1.6-4.6c0-2.3-1.6-4.2-4.9-6.8"/>
		<path class="st1" d="M245.8,647.5c-1.6-0.3-2.6-1-3.3-1.3c-0.7-0.7-1-2-1-3.9c0-1,0.3-2.3,1.3-4.2c1-1.3,1.3-2.6,2-3.3"/>
		<polyline class="st1" points="244.2,651.4 245.8,651.4 345.7,651.4 		"/>
		<path class="st1" d="M245.8,653c-1.3,17.2-6.8,33.2-16.3,47.2c-10.1,13.7-15,29.6-15,47.5c0,22.4,7.8,41.6,23.8,57.6
			c15.6,15.9,34.8,23.8,57.6,23.8c22.1,0,41.6-7.8,57.3-23.8c15.9-15.9,24.1-35.1,24.1-57.6c0-18.9-5.5-35.5-16.9-49.8"/>
		<path class="st1" d="M346.3,655.9c0,15,4.6,28.6,14,41.3"/>
		<line class="st1" x1="344.7" y1="630.5" x2="246.4" y2="630.5"/>
		<line class="st2" x1="293.6" y1="0" x2="293.6" y2="575.9"/>
	</g>
</g>
</svg>
