<?xml version="1.0" encoding="utf-8"?>
<!-- Generator: Adobe Illustrator 19.1.0, SVG Export Plug-In . SVG Version: 6.00 Build 0)  -->
<svg version="1.0" id="Layer_1" xmlns="http://www.w3.org/2000/svg" xmlns:xlink="http://www.w3.org/1999/xlink" x="0px" y="0px"
	 viewBox="0 0 595.3 841.9" style="enable-background:new 0 0 595.3 841.9;" xml:space="preserve">
<style type="text/css">
	.st0{fill:none;stroke:#FFFFFF;stroke-width:6;stroke-linecap:round;stroke-linejoin:round;stroke-miterlimit:10;}
</style>
<path class="st0" d="M286.6,677.5c0-1.4,0-2.1,0-2.8c-0.7-12.4-2.1-20.6-2.1-26.8c-0.7-3.4-0.7-6.2-0.7-7.6c0-7.6,0.7-13.8,2.8-17.2
	 M203.4,211.2L184.2,271c-0.7,0.7-0.7,1.4-0.7,2.1c-8.9,43.3-28.2,98.4-57.8,167.1c-6.2,14.4-12.4,27.5-16.5,39.2
	c-17.2,39.9-27.5,64-31,72.9c-14.4,39.2-22,69.5-22,90.1c0,59.8,17.2,105.9,52.3,139.6c5.5,4.1,11,8.9,16.5,13.8
	c42.6,31,103.2,46.1,182.3,46.1c81.9,0,137.6-24.1,168.5-71.5c22-35.1,32.3-88,32.3-160.3c0-38.5-9.6-76.3-29.6-113.5
	c-3.4-6.2-6.9-11.7-9.6-17.2c-6.9-11.7-12.4-22-15.8-28.9c-10.3-19.3-18.6-36.5-24.1-51.6c-13.1-39.2-22-72.2-28.2-97.7
	c-4.1-16.5-7.6-38.5-11.7-66c-2.8-13.8-6.2-28.2-8.3-44c0-2.8-1.4-5.5-1.4-7.6c0-10.3,0-33,0-70.2 M320.3,0
	c22.7,21.3,52.3,40.6,91.5,57.8c29.6,12.4,55,20.6,77.7,22.7 M317.6,0c-4.1,26.8-6.2,44.7-6.2,54.3c0,5.5,2.1,33,6.2,84.6
	c0,1.4,0,2.1,0,2.8c0,1.4,0,2.8,0,2.8c0,0.7,0,6.9,0,19.3 M261.9,166.5c2.1-8.9,2.8-14.4,3.4-15.8c0,0,0-1.4,0-3.4
	c0-1.4,0-2.8,0-4.1c0-19.3,0-39.2-1.4-58.5c0-6.2-0.7-13.1-1.4-19.9c-1.4-28.9-4.1-50.9-8.9-64.7c-8.3,30.3-29.6,56.4-64,78.4
	c-31,19.3-61.2,29.6-90.8,30.3c4.8,1.4,14.4,2.8,29.6,4.1c13.1,0.7,23.4,2.1,28.2,2.1s13.1-1.4,24.8-2.1c7.6-1.4,15.1-1.4,20.6-2.8
	c-0.7,4.8-0.7,11.7,0,22c0,4.8,0,8.9,0.7,14.4c0.7,3.4,0.7,6.9,0.7,9.6c0.7,10.3,1.4,18.6,2.1,24.8c0,2.8,0,6.2,0,10.3
	c-0.7,5.5-1.4,12.4-2.1,19.9 M207.5,200.2l-4.1,11 M379.5,631.4c-2.1-0.7-4.1-2.1-5.5-3.4c-18.6-11-28.9-17.2-33-17.9
	c-11.7-4.8-32.3-6.9-60.5-6.9c-16.5,0-28.9,1.4-37.1,3.4c-10.3,3.4-19.3,8.3-28.9,16.5 M376.1,97.7h17.2c9.6,1.4,25.4,1.4,46.1,0
	c5.5,0,11.7,0,18.6-1.4c12.4-0.7,22.7-2.1,31.6-4.1 M347.9,379.7l-9.6,16.5 M241.2,355.6c0-1.4,0-2.1,0-2.8h-3.4 M237.8,359
	c0-2.1,0-4.8,0-6.2 M237.8,352.9l-3.4,29.6l7.6,16.5 M241.9,398.9c0.7-0.7,1.4-2.1,1.4-2.1 M241.9,398.9c0-2.1,0-4.8-0.7-6.9
	 M241.2,392.1c0.7,1.4,0.7,2.8,2.1,4.8 M237.8,359c0.7,9.6,2.1,20.6,3.4,33 M241.2,355.6l2.1,41.3 M343,355.6
	c0.7-2.1,0.7-3.4,0.7-5.5 M345.1,355.6c-0.7,1.4-0.7,2.8-0.7,4.1 M344.4,359.7l-1.4-4.1 M343,355.6l-3.4-2.8 M343.7,350.1h-4.1
	c0,0.7,0,1.4,0,2.8 M343.7,350.1l1.4,5.5 M344.4,359.7l3.4,19.9 M345.1,355.6l2.8,24.1 M339.6,352.9l-1.4,40.6c0,0.7,0,1.4,0,2.8
	 M338.2,396.2c0.7-1.4,0.7-1.4,1.4-2.8c0-1.4,0-3.4,0-4.8c1.4-10.3,3.4-20.6,4.8-28.9 M237.8,359l3.4-3.4"/>
</svg>
